<svg width="22" height="22" viewBox="0 0 22 22" fill="none" xmlns="http://www.w3.org/2000/svg">
<path d="M10.9998 3.8165C14.9687 3.8165 18.1832 7.03101 18.1832 10.9998C18.1832 14.9687 14.9687 18.1832 10.9998 18.1832C7.03101 18.1832 3.8165 14.9687 3.8165 10.9998C3.8165 7.03101 7.03101 3.8165 10.9998 3.8165ZM9.3165 8.70817C9.3165 7.86449 8.63518 7.18317 7.7915 7.18317C6.94783 7.18317 6.2665 7.86449 6.2665 8.70817C6.2665 9.55185 6.94783 10.2332 7.7915 10.2332C8.63518 10.2332 9.3165 9.55185 9.3165 8.70817ZM6.87021 14.1679C7.78367 15.663 9.28596 16.6498 10.9998 16.6498C12.7137 16.6498 14.216 15.663 15.1295 14.1679C15.3401 13.8232 15.3033 13.4461 15.1129 13.1599C14.9243 12.8766 14.587 12.6832 14.1957 12.6832H7.80393C7.41272 12.6832 7.07533 12.8766 6.88678 13.1599C6.69636 13.4461 6.65957 13.8232 6.87021 14.1679ZM12.6832 8.70817C12.6832 9.55185 13.3645 10.2332 14.2082 10.2332C15.0518 10.2332 15.7332 9.55185 15.7332 8.70817C15.7332 7.86449 15.0518 7.18317 14.2082 7.18317C13.3645 7.18317 12.6832 7.86449 12.6832 8.70817Z" stroke="#8D9295" stroke-width="0.3"/>
<path d="M14.2085 10.0835C14.9679 10.0835 15.5835 9.46789 15.5835 8.7085C15.5835 7.9491 14.9679 7.3335 14.2085 7.3335C13.4491 7.3335 12.8335 7.9491 12.8335 8.7085C12.8335 9.46789 13.4491 10.0835 14.2085 10.0835Z" fill="#8D9295"/>
<path d="M7.7915 10.0835C8.55089 10.0835 9.1665 9.46789 9.1665 8.7085C9.1665 7.9491 8.55089 7.3335 7.7915 7.3335C7.03211 7.3335 6.4165 7.9491 6.4165 8.7085C6.4165 9.46789 7.03211 10.0835 7.7915 10.0835Z" fill="#8D9295"/>
<path d="M3.1665 10.9998C3.1665 15.3276 6.67203 18.8332 10.9998 18.8332C15.3276 18.8332 18.8332 15.3276 18.8332 10.9998C18.8332 6.67203 15.3276 3.1665 10.9998 3.1665C6.67203 3.1665 3.1665 6.67203 3.1665 10.9998Z" stroke="#8D9295"/>
<path d="M14.5748 13.8294C13.7575 15.1669 12.4483 16.0002 10.9998 16.0002C9.55142 16.0002 8.24213 15.1669 7.42488 13.8294C7.35598 13.7166 7.36676 13.6123 7.42792 13.5204C7.49533 13.4191 7.62909 13.3335 7.80393 13.3335H14.1957C14.3706 13.3335 14.5043 13.4191 14.5718 13.5204C14.6329 13.6123 14.6437 13.7166 14.5748 13.8294Z" stroke="#8D9295"/>
</svg>
