<svg width="18" height="18" viewBox="0 0 18 18" fill="none" xmlns="http://www.w3.org/2000/svg">
<path fill-rule="evenodd" clip-rule="evenodd" d="M9 18C13.9706 18 18 13.9706 18 9C18 4.02944 13.9706 0 9 0C4.02944 0 0 4.02944 0 9C0 13.9706 4.02944 18 9 18ZM9.802 9.078C9.942 8.81667 10.0307 8.52267 10.068 8.196H11.524L11.944 7.37H10.054C9.98867 6.85667 9.79733 6.42267 9.48 6.068H11.524L11.944 5.242H5.798L5.378 6.068H7.072C7.548 6.08667 7.926 6.21267 8.206 6.446C8.486 6.67933 8.668 6.98733 8.752 7.37H5.798L5.378 8.196H8.808C8.78 8.49467 8.69133 8.73733 8.542 8.924C8.402 9.11067 8.22467 9.26 8.01 9.372C7.79533 9.47467 7.55267 9.54933 7.282 9.596C7.02067 9.63333 6.74533 9.652 6.456 9.652H5.63V10.674C5.87267 10.674 6.10133 10.758 6.316 10.926C6.54 11.0847 6.78733 11.346 7.058 11.71L9.536 15H11.132L7.786 10.59C8.066 10.5153 8.33667 10.4127 8.598 10.282C8.85933 10.142 9.09267 9.974 9.298 9.778C9.50333 9.57267 9.67133 9.33933 9.802 9.078Z" fill="#A7ACB0"/>
</svg>
