<svg width="21" height="21" viewBox="0 0 21 21" fill="none" xmlns="http://www.w3.org/2000/svg">
<path d="M7.3501 10.5001C7.3501 9.66467 7.68197 8.86345 8.27271 8.27271C8.86345 7.68197 9.66467 7.3501 10.5001 7.3501C11.3355 7.3501 12.1367 7.68197 12.7275 8.27271C13.3182 8.86345 13.6501 9.66467 13.6501 10.5001C13.6501 11.3355 13.3182 12.1367 12.7275 12.7275C12.1367 13.3182 11.3355 13.6501 10.5001 13.6501C9.66467 13.6501 8.86345 13.3182 8.27271 12.7275C7.68197 12.1367 7.3501 11.3355 7.3501 10.5001Z" fill="#A7ACB0"/>
<path d="M7.12342 2.9674C7.25456 2.70667 7.45556 2.4875 7.70401 2.33435C7.95245 2.18121 8.23856 2.10011 8.53042 2.1001H12.4826C12.7753 2.10011 13.0621 2.18165 13.311 2.33559C13.5599 2.48953 13.761 2.70976 13.8917 2.9716L14.506 4.2001H16.2805C16.9767 4.2001 17.6443 4.47666 18.1366 4.96894C18.6289 5.46123 18.9055 6.1289 18.9055 6.8251V15.2251C18.9055 15.9213 18.6289 16.589 18.1366 17.0813C17.6443 17.5735 16.9767 17.8501 16.2805 17.8501H4.73047C4.03428 17.8501 3.3666 17.5735 2.87431 17.0813C2.38203 16.589 2.10547 15.9213 2.10547 15.2251V6.8251C2.10547 6.1289 2.38203 5.46123 2.87431 4.96894C3.3666 4.47666 4.03428 4.2001 4.73047 4.2001H6.50497L7.12342 2.9674ZM10.5002 6.3001C9.38631 6.3001 8.31802 6.7426 7.53037 7.53025C6.74272 8.3179 6.30022 9.38619 6.30022 10.5001C6.30022 11.614 6.74272 12.6823 7.53037 13.4699C8.31802 14.2576 9.38631 14.7001 10.5002 14.7001C11.6141 14.7001 12.6824 14.2576 13.4701 13.4699C14.2577 12.6823 14.7002 11.614 14.7002 10.5001C14.7002 9.38619 14.2577 8.3179 13.4701 7.53025C12.6824 6.7426 11.6141 6.3001 10.5002 6.3001Z" fill="#A7ACB0"/>
</svg>
